<svg class="icon" style="width: 1em;height: 1em;vertical-align: middle;fill: #eeeeee;overflow: hidden;"
    viewBox="0 0 1024 1024" version="1.1" xmlns="http://www.w3.org/2000/svg" p-id="4539">
    <path
        d="M491.737 879.03c-52.561 0-103.565-10.301-151.597-30.616-46.377-19.616-88.022-47.692-123.778-83.448s-63.832-77.4-83.448-123.778c-20.315-48.031-30.616-99.036-30.616-151.597s10.301-103.565 30.616-151.597c19.616-46.377 47.692-88.022 83.448-123.778s77.401-63.832 123.778-83.448c48.032-20.315 99.036-30.616 151.597-30.616s103.565 10.301 151.597 30.616c46.378 19.616 88.022 47.692 123.778 83.448s63.832 77.401 83.448 123.778c20.315 48.032 30.616 99.036 30.616 151.597s-10.301 103.565-30.616 151.597c-19.616 46.378-47.692 88.022-83.448 123.778s-77.4 63.832-123.778 83.448c-48.031 20.315-99.036 30.616-151.597 30.616z m0-718.878c-181.653 0-329.439 147.786-329.439 329.439S310.084 819.03 491.737 819.03s329.439-147.786 329.439-329.439-147.785-329.439-329.439-329.439zM875.896 920.896c-12.796 0-25.592-4.882-35.355-14.645L734.166 799.877c-19.526-19.526-19.526-51.185 0-70.711 19.527-19.525 51.184-19.525 70.711 0L911.251 835.54c19.526 19.526 19.526 51.185 0 70.711-9.764 9.763-22.56 14.645-35.355 14.645z"
        p-id="4540"></path>
</svg>